<?xml version="1.0" standalone="no"?>
<!DOCTYPE svg PUBLIC "-//W3C//DTD SVG 20010904//EN"
 "http://www.w3.org/TR/2001/REC-SVG-20010904/DTD/svg10.dtd">
<svg version="1.0" xmlns="http://www.w3.org/2000/svg"
 width="1024.000000pt" height="1024.000000pt" viewBox="0 0 1024.000000 1024.000000"
 preserveAspectRatio="xMidYMid meet">
<metadata>
Created by potrace 1.14, written by Peter Selinger 2001-2017
</metadata>
<g transform="translate(0.000000,1024.000000) scale(0.100000,-0.100000)"
fill="#000000" stroke="none">
<path d="M480 5125 c0 -2813 3 -5115 8 -5115 6 0 78 54 122 93 8 7 35 28 60
47 25 19 50 39 57 45 7 5 18 15 25 20 7 6 36 28 63 50 60 47 54 43 135 106 36
28 78 62 94 75 16 13 43 34 59 46 75 57 222 173 227 178 3 3 37 30 75 60 39
30 75 59 82 65 6 5 24 20 40 32 31 23 144 112 343 270 47 38 100 79 119 93 18
14 38 30 44 35 7 6 32 26 57 44 25 19 50 39 55 45 6 6 44 36 85 68 41 31 85
65 97 75 36 30 56 46 111 88 28 21 53 42 53 45 1 3 2 1494 3 3315 l1 3310
2625 0 2625 0 0 -2300 0 -2300 -1240 0 -1239 0 -1 368 c0 203 3 373 6 379 4 6
291 10 850 10 l844 0 0 586 c0 323 -3 589 -7 592 -3 3 -385 5 -847 5 -557 0
-841 3 -842 10 -1 5 -2 175 -3 378 -1 361 -1 367 19 368 11 1 389 2 840 3 451
1 825 4 830 8 6 3 9 47 7 105 -1 54 -2 105 -2 113 0 8 0 80 0 160 0 80 0 150
0 155 0 6 1 91 3 190 1 99 -2 186 -7 193 -4 6 -5 12 0 12 7 0 10 108 5 192 -1
16 -114 17 -1840 17 -1376 -1 -1840 -4 -1843 -13 -2 -6 -2 -270 -1 -586 2
-316 3 -584 3 -595 0 -11 0 -85 0 -165 0 -80 0 -149 0 -155 0 -5 -1 -91 -3
-190 -1 -99 2 -186 7 -192 4 -7 5 -13 0 -13 -11 0 -11 -931 0 -948 4 -7 4 -12
-1 -12 -4 0 -7 -53 -6 -117 2 -65 3 -125 3 -133 0 -8 0 -80 0 -160 0 -80 0
-149 0 -155 0 -5 -1 -379 -3 -830 -1 -468 1 -825 7 -832 5 -7 5 -13 0 -13 -7
0 -11 -570 -5 -732 l1 -28 3240 0 3240 0 0 4325 0 4325 -4640 0 -4640 0 0
-5115z"/>
</g>
</svg>
